<mxfile host="Electron" modified="2024-04-09T07:08:06.885Z" agent="Mozilla/5.0 (Windows NT 10.0; Win64; x64) AppleWebKit/537.36 (KHTML, like Gecko) draw.io/24.1.0 Chrome/120.0.6099.109 Electron/28.1.0 Safari/537.36" version="24.1.0" etag="EoEIVSOKoeon_AqrCrq2" type="device">
  <diagram id="FpNKXTD9Cf5Cb3-KDw-J" name="第 1 页">
    <mxGraphModel dx="1418" dy="828" grid="1" gridSize="10" guides="1" tooltips="1" connect="1" arrows="1" fold="1" page="1" pageScale="1" pageWidth="3300" pageHeight="4681" math="0" shadow="0">
      <root>
        <mxCell id="0" />
        <mxCell id="1" parent="0" />
        <mxCell id="bE27pp9LFLklc_7XJpZC-32" style="edgeStyle=orthogonalEdgeStyle;rounded=0;orthogonalLoop=1;jettySize=auto;html=1;exitX=0;exitY=1;exitDx=0;exitDy=0;entryX=0.25;entryY=0;entryDx=0;entryDy=0;strokeColor=#E07A5F;fontColor=#393C56;fillColor=#F2CC8F;" edge="1" parent="1" source="bE27pp9LFLklc_7XJpZC-3" target="bE27pp9LFLklc_7XJpZC-5">
          <mxGeometry relative="1" as="geometry" />
        </mxCell>
        <mxCell id="bE27pp9LFLklc_7XJpZC-3" value="router" style="html=1;rounded=0;labelBackgroundColor=none;fillColor=#F2CC8F;strokeColor=#E07A5F;fontColor=#393C56;" vertex="1" parent="1">
          <mxGeometry x="60" y="30" width="460" height="40" as="geometry" />
        </mxCell>
        <mxCell id="bE27pp9LFLklc_7XJpZC-31" style="edgeStyle=orthogonalEdgeStyle;rounded=0;orthogonalLoop=1;jettySize=auto;html=1;exitX=0.75;exitY=0;exitDx=0;exitDy=0;entryX=0.5;entryY=1;entryDx=0;entryDy=0;strokeColor=#E07A5F;fontColor=#393C56;fillColor=#F2CC8F;" edge="1" parent="1" source="bE27pp9LFLklc_7XJpZC-5" target="bE27pp9LFLklc_7XJpZC-3">
          <mxGeometry relative="1" as="geometry" />
        </mxCell>
        <mxCell id="bE27pp9LFLklc_7XJpZC-5" value="ScopeObserver" style="html=1;rounded=0;labelBackgroundColor=none;fillColor=#F2CC8F;strokeColor=#E07A5F;fontColor=#393C56;" vertex="1" parent="1">
          <mxGeometry x="120" y="160" width="110" height="50" as="geometry" />
        </mxCell>
        <mxCell id="bE27pp9LFLklc_7XJpZC-6" value="" style="edgeStyle=orthogonalEdgeStyle;orthogonalLoop=1;jettySize=auto;html=1;labelBackgroundColor=none;strokeColor=#E07A5F;fontColor=default;" edge="1" parent="1" source="bE27pp9LFLklc_7XJpZC-8" target="bE27pp9LFLklc_7XJpZC-14">
          <mxGeometry relative="1" as="geometry" />
        </mxCell>
        <mxCell id="bE27pp9LFLklc_7XJpZC-7" style="edgeStyle=orthogonalEdgeStyle;rounded=0;orthogonalLoop=1;jettySize=auto;html=1;exitX=0.75;exitY=0;exitDx=0;exitDy=0;entryX=0.75;entryY=1;entryDx=0;entryDy=0;strokeColor=#E07A5F;fontColor=#393C56;fillColor=#F2CC8F;" edge="1" parent="1" source="bE27pp9LFLklc_7XJpZC-8" target="bE27pp9LFLklc_7XJpZC-5">
          <mxGeometry relative="1" as="geometry" />
        </mxCell>
        <mxCell id="bE27pp9LFLklc_7XJpZC-8" value="ValueListObserver" style="html=1;rounded=0;labelBackgroundColor=none;fillColor=#F2CC8F;strokeColor=#E07A5F;fontColor=#393C56;" vertex="1" parent="1">
          <mxGeometry x="120" y="260" width="110" height="50" as="geometry" />
        </mxCell>
        <mxCell id="bE27pp9LFLklc_7XJpZC-11" value="" style="endArrow=block;endFill=1;html=1;edgeStyle=orthogonalEdgeStyle;align=left;verticalAlign=top;rounded=0;exitX=0.5;exitY=1;exitDx=0;exitDy=0;entryX=0.5;entryY=0;entryDx=0;entryDy=0;labelBackgroundColor=none;strokeColor=#E07A5F;fontColor=default;" edge="1" parent="1" source="bE27pp9LFLklc_7XJpZC-5" target="bE27pp9LFLklc_7XJpZC-8">
          <mxGeometry x="-1" relative="1" as="geometry">
            <mxPoint x="580" y="430" as="sourcePoint" />
            <mxPoint x="740" y="430" as="targetPoint" />
          </mxGeometry>
        </mxCell>
        <mxCell id="bE27pp9LFLklc_7XJpZC-12" value="1" style="edgeLabel;resizable=0;html=1;align=left;verticalAlign=bottom;rounded=0;labelBackgroundColor=none;fontColor=#393C56;" connectable="0" vertex="1" parent="bE27pp9LFLklc_7XJpZC-11">
          <mxGeometry x="-1" relative="1" as="geometry" />
        </mxCell>
        <mxCell id="bE27pp9LFLklc_7XJpZC-13" style="edgeStyle=orthogonalEdgeStyle;rounded=0;orthogonalLoop=1;jettySize=auto;html=1;exitX=0.75;exitY=0;exitDx=0;exitDy=0;entryX=0.75;entryY=1;entryDx=0;entryDy=0;strokeColor=#E07A5F;fontColor=#393C56;fillColor=#F2CC8F;" edge="1" parent="1" source="bE27pp9LFLklc_7XJpZC-14" target="bE27pp9LFLklc_7XJpZC-8">
          <mxGeometry relative="1" as="geometry" />
        </mxCell>
        <mxCell id="bE27pp9LFLklc_7XJpZC-14" value="TokenListObserver" style="html=1;rounded=0;labelBackgroundColor=none;fillColor=#F2CC8F;strokeColor=#E07A5F;fontColor=#393C56;" vertex="1" parent="1">
          <mxGeometry x="120" y="380" width="110" height="50" as="geometry" />
        </mxCell>
        <mxCell id="bE27pp9LFLklc_7XJpZC-15" value="" style="edgeStyle=orthogonalEdgeStyle;orthogonalLoop=1;jettySize=auto;html=1;labelBackgroundColor=none;strokeColor=#E07A5F;fontColor=default;" edge="1" parent="1" source="bE27pp9LFLklc_7XJpZC-17" target="bE27pp9LFLklc_7XJpZC-21">
          <mxGeometry relative="1" as="geometry" />
        </mxCell>
        <mxCell id="bE27pp9LFLklc_7XJpZC-16" style="edgeStyle=orthogonalEdgeStyle;rounded=0;orthogonalLoop=1;jettySize=auto;html=1;exitX=0.75;exitY=0;exitDx=0;exitDy=0;entryX=0.75;entryY=1;entryDx=0;entryDy=0;strokeColor=#E07A5F;fontColor=#393C56;fillColor=#F2CC8F;" edge="1" parent="1" source="bE27pp9LFLklc_7XJpZC-17" target="bE27pp9LFLklc_7XJpZC-14">
          <mxGeometry relative="1" as="geometry" />
        </mxCell>
        <mxCell id="bE27pp9LFLklc_7XJpZC-17" value="AttributeObserver" style="html=1;rounded=0;labelBackgroundColor=none;fillColor=#F2CC8F;strokeColor=#E07A5F;fontColor=#393C56;" vertex="1" parent="1">
          <mxGeometry x="120" y="480" width="110" height="50" as="geometry" />
        </mxCell>
        <mxCell id="bE27pp9LFLklc_7XJpZC-18" value="&lt;div&gt;&lt;br&gt;&lt;/div&gt;&lt;div&gt;&lt;br&gt;&lt;/div&gt;" style="endArrow=block;endFill=1;html=1;edgeStyle=orthogonalEdgeStyle;align=left;verticalAlign=top;rounded=0;exitX=0.5;exitY=1;exitDx=0;exitDy=0;entryX=0.5;entryY=0;entryDx=0;entryDy=0;labelBackgroundColor=none;strokeColor=#E07A5F;fontColor=default;" edge="1" parent="1" source="bE27pp9LFLklc_7XJpZC-14" target="bE27pp9LFLklc_7XJpZC-17">
          <mxGeometry x="-1" relative="1" as="geometry">
            <mxPoint x="580" y="650" as="sourcePoint" />
            <mxPoint x="740" y="650" as="targetPoint" />
          </mxGeometry>
        </mxCell>
        <mxCell id="bE27pp9LFLklc_7XJpZC-19" value="1" style="edgeLabel;resizable=0;html=1;align=left;verticalAlign=bottom;rounded=0;labelBackgroundColor=none;fontColor=#393C56;" connectable="0" vertex="1" parent="bE27pp9LFLklc_7XJpZC-18">
          <mxGeometry x="-1" relative="1" as="geometry" />
        </mxCell>
        <mxCell id="bE27pp9LFLklc_7XJpZC-20" style="edgeStyle=orthogonalEdgeStyle;rounded=0;orthogonalLoop=1;jettySize=auto;html=1;exitX=0.75;exitY=0;exitDx=0;exitDy=0;entryX=0.75;entryY=1;entryDx=0;entryDy=0;strokeColor=#E07A5F;fontColor=#393C56;fillColor=#F2CC8F;" edge="1" parent="1" source="bE27pp9LFLklc_7XJpZC-21" target="bE27pp9LFLklc_7XJpZC-17">
          <mxGeometry relative="1" as="geometry" />
        </mxCell>
        <mxCell id="bE27pp9LFLklc_7XJpZC-21" value="ElementObserver" style="html=1;rounded=0;labelBackgroundColor=none;fillColor=#F2CC8F;strokeColor=#E07A5F;fontColor=#393C56;" vertex="1" parent="1">
          <mxGeometry x="120" y="610" width="110" height="50" as="geometry" />
        </mxCell>
        <mxCell id="bE27pp9LFLklc_7XJpZC-25" value="匹配到dom" style="text;html=1;align=center;verticalAlign=middle;resizable=0;points=[];autosize=1;strokeColor=none;fillColor=none;fontColor=#393C56;" vertex="1" parent="1">
          <mxGeometry x="200" y="570" width="80" height="30" as="geometry" />
        </mxCell>
        <mxCell id="bE27pp9LFLklc_7XJpZC-26" value="筛选出有controller的dom" style="text;html=1;align=center;verticalAlign=middle;resizable=0;points=[];autosize=1;strokeColor=none;fillColor=none;fontColor=#393C56;" vertex="1" parent="1">
          <mxGeometry x="200" y="440" width="160" height="30" as="geometry" />
        </mxCell>
        <mxCell id="bE27pp9LFLklc_7XJpZC-27" value="提取Tokens" style="text;html=1;align=center;verticalAlign=middle;resizable=0;points=[];autosize=1;strokeColor=none;fillColor=none;fontColor=#393C56;" vertex="1" parent="1">
          <mxGeometry x="195" y="330" width="90" height="30" as="geometry" />
        </mxCell>
        <mxCell id="bE27pp9LFLklc_7XJpZC-28" value="遍历每一个token" style="text;html=1;align=center;verticalAlign=middle;resizable=0;points=[];autosize=1;strokeColor=none;fillColor=none;fontColor=#393C56;" vertex="1" parent="1">
          <mxGeometry x="200" y="220" width="110" height="30" as="geometry" />
        </mxCell>
        <mxCell id="bE27pp9LFLklc_7XJpZC-29" value="" style="whiteSpace=wrap;html=1;strokeColor=#E07A5F;fontColor=#393C56;fillColor=#F2CC8F;" vertex="1" parent="1">
          <mxGeometry x="380" y="160" width="90" height="50" as="geometry" />
        </mxCell>
        <mxCell id="bE27pp9LFLklc_7XJpZC-30" value="生成scope" style="text;html=1;align=center;verticalAlign=middle;resizable=0;points=[];autosize=1;strokeColor=none;fillColor=none;fontColor=#393C56;" vertex="1" parent="1">
          <mxGeometry x="240" y="80" width="80" height="30" as="geometry" />
        </mxCell>
      </root>
    </mxGraphModel>
  </diagram>
</mxfile>
